<?xml version="1.0" standalone="no"?>
<!DOCTYPE svg PUBLIC "-//W3C//DTD SVG 20010904//EN"
 "http://www.w3.org/TR/2001/REC-SVG-20010904/DTD/svg10.dtd">
<svg version="1.0" xmlns="http://www.w3.org/2000/svg"
 width="941.000000pt" height="1280.000000pt" viewBox="0 0 941.000000 1280.000000"
 preserveAspectRatio="xMidYMid meet">
<g transform="translate(0.000000,1280.000000) scale(0.100000,-0.100000)"
fill="#000000" stroke="none">
<path d="M5395 12403 c-254 -23 -526 -127 -727 -278 -147 -111 -310 -301 -387
-453 -12 -24 -28 -45 -35 -48 -7 -3 -54 15 -104 40 -189 95 -351 135 -577 143
-315 11 -578 -62 -833 -230 -124 -82 -281 -233 -361 -347 -158 -224 -241 -485
-241 -759 0 -369 132 -683 400 -951 247 -248 566 -391 908 -407 79 -4 118 -10
128 -20 20 -20 21 -1050 2 -1076 -10 -12 -197 -53 -711 -156 -384 -78 -710
-141 -723 -141 -14 0 -26 6 -28 13 -2 6 -12 42 -21 80 -24 95 -39 87 -31 -18
7 -99 19 -91 -136 -99 -265 -15 -862 -132 -1203 -238 -125 -38 -237 -87 -232
-102 7 -19 230 -9 419 18 311 46 689 129 974 215 122 36 161 45 190 42 6 -1
17 -21 24 -46 18 -65 30 -65 30 -1 0 31 5 58 12 62 6 4 329 71 717 150 506
102 709 140 718 132 10 -8 13 -61 13 -206 0 -177 2 -200 21 -238 40 -84 139
-149 277 -185 73 -18 126 -19 1662 -19 1537 0 1589 1 1663 19 131 34 217 89
265 169 l27 47 5 320 c4 287 7 320 21 319 9 -1 294 -183 634 -404 340 -221
626 -405 636 -407 21 -6 131 18 247 53 l82 25 0 1125 0 1125 -35 15 c-20 8
-92 28 -160 45 -97 23 -129 28 -145 19 -11 -6 -293 -189 -628 -407 -334 -218
-616 -397 -627 -397 -20 -1 -20 7 -25 364 -5 358 -5 366 -28 402 -30 49 -91
102 -151 133 -102 51 -142 55 -596 55 -402 0 -469 3 -463 20 2 4 41 36 88 70
468 344 662 938 483 1485 -96 296 -319 570 -601 739 -232 140 -562 214 -837
189z"/>
<path d="M4632 7152 c3 -20 20 -73 38 -116 105 -252 328 -447 602 -527 105
-30 324 -38 438 -15 308 63 576 289 680 575 17 45 30 90 30 101 0 20 -11 20
-896 20 l-897 0 5 -38z"/>
<path d="M4553 6413 c-10 -3 -13 -76 -13 -314 l0 -309 165 0 c126 0 167 -3
171 -13 2 -7 -160 -330 -362 -717 -201 -388 -462 -889 -579 -1115 -201 -387
-535 -1030 -1142 -2200 -146 -280 -300 -577 -343 -660 -508 -974 -538 -1035
-512 -1035 6 0 505 905 2676 4855 l483 880 109 0 109 0 8 -55 c4 -30 80 -1146
168 -2480 88 -1333 162 -2427 165 -2429 2 -2 6 -2 9 0 2 3 -23 993 -56 2199
-33 1207 -60 2323 -62 2480 l-2 285 171 3 c129 2 174 -1 182 -10 5 -7 270
-485 587 -1063 2169 -3946 2589 -4705 2599 -4705 7 0 23 11 36 25 21 22 22 28
11 52 -14 32 -532 1030 -1046 2018 -106 204 -283 546 -395 760 -111 215 -235
453 -275 530 -40 77 -164 316 -275 530 -254 490 -557 1073 -779 1499 -94 180
-171 337 -171 347 0 18 10 19 155 19 l155 0 -2 313 -3 312 -965 2 c-531 1
-971 -1 -977 -4z"/>
</g>
</svg>
